<svg height="24" viewBox="0 0 24 24" width="24" xmlns="http://www.w3.org/2000/svg"><title/><g fill="none" fill-rule="evenodd"><path d="M12 23c6.075 0 11-4.925 11-11S18.075 1 12 1 1 5.925 1 12s4.925 11 11 11zm6-7h-2.4312v-3.5154c0-.9202-.3802-1.5483-1.2165-1.5483-.6396 0-.9954.424-1.161.8324-.062.1466-.0523.351-.0523.5552V16h-2.4085s.031-6.2272 0-6.7932h2.4085v1.066c.1423-.466.912-1.1314 2.14-1.1314 1.524 0 2.721.9772 2.721 3.0813V16zM8.2948 8.357h-.0155C7.5033 8.357 7 7.8377 7 7.1795 7 6.5085 7.518 6 8.3097 6c.791 0 1.2773.507 1.2928 1.1776 0 .6582-.5018 1.1794-1.3077 1.1794zm-1.0173.8498h2.144V16h-2.144V9.2068z" fill="#000"/></g></svg>