<svg height="512" preserveAspectRatio="xMidYMid" viewBox="0 0 512 512" width="512" xmlns="http://www.w3.org/2000/svg"><defs><style>.cls-1 { fill-opacity: 0; } .cls-2 { fill: #000; } .cls-2, .cls-3 { fill-rule: evenodd; } .cls-3 { fill: #000; opacity: 0.1; }</style></defs><circle class="cls-1" cx="256" cy="256" r="256"/><path class="cls-2" d="M256 512C114.615 512 0 397.385 0 256S114.615 0 256 0s256 114.615 256 256-114.615 256-256 256zM124.185 206.652c-12.926-6.389-22.723-1.339-22.723-1.339-14.283 16.41-18.713 64.275-18.713 64.275s-18.175-38.828-25.397-44.189c-7.221-5.361-24.06 1.339-24.06 1.339-1.85 70.273 5.347 88.378 5.347 88.378 12.062 1.422 22.742-1.544 22.723-6.695-.019-5.152-1.336-26.782-1.336-26.782 14.609 27.422 21.386 32.138 21.386 32.138 8.324-4.416 22.723-2.678 22.723-2.678 6.922-9.227 6.684-58.919 6.684-58.919 12.895 58.739 21.386 68.292 21.386 68.292 18.672 1.924 20.05-5.356 20.05-5.356-4.562-18.004-19.564-104.259-28.07-108.464zm82.873 13.391c-8.023-8.475-19.52-5.792-24.06-5.356-4.54.435-20.709 13.105-25.396 22.764-4.688 9.658-9.554 51.311-5.347 58.918 4.207 7.607 15.778 20.861 24.06 22.764 5.619 1.291 26.061 5.949 48.12-6.695 0 0-4.125-6.134-16.04-6.696-7.607-.358-12.389 6.265-20.05 4.018-8.03-2.356-14.869-13.354-10.694-34.816 0 0 26.811 4.923 32.08 1.339 5.269-3.584 5.35-47.765-2.673-56.24zm72.18 81.682c-7.225 1.169-10.21 11.05-24.06 5.357-11.336-4.66-17.543-5.32-13.367-26.782 0 0 24.138 3.584 29.407 0 5.269-3.584 12.032-55.799 4.01-64.274-8.023-8.475-19.52-5.792-24.06-5.356-4.54.435-19.373 15.783-24.06 25.442-4.688 9.658-10.89 48.633-6.683 56.24 4.206 7.607 15.777 20.861 24.059 22.764 5.62 1.291 26.061 5.949 48.12-6.695 0 0-1.59-8.601-13.366-6.696zm52.129-48.206v8.035h-5.346s-5.719-47.114 0-80.344c0 0-3.363-13.707-24.06-9.373 0 0-7.507 28.054 2.673 91.056 0 0-8.327-.362-16.04 0-7.712.361-5.636 11.519-1.337 12.051 4.3.533 20.05 2.678 20.05 2.678l2.674 45.528 14.703-2.678v-45.528h16.04s2.684-8.189 9.356-6.695c0 0-9.785-15.68-18.713-14.73zm85.546-2.678l-1.336-2.678s-10.997-8.612-14.704-4.017c-3.706 4.594 2.128 47.552-16.039 60.257 0 0-8.016-9.827-5.347-52.223 0 0-10.737-10.493-22.723-8.034-1.917.393-12.877 77.006 22.723 73.648 35.6-3.358 42.702-50.325 42.773-62.936-.311-3.826-5.347-4.017-5.347-4.017zm69.507-29.459c-5.267.871-7.281-8.927-18.714-6.695-48.732 9.51-40.099 81.682-40.099 81.682s-10.614 1.261-9.357 6.695c1.257 5.435 8.02 9.374 8.02 9.374-2.924 13.28 6.683 53.562 6.683 53.562h21.387c-11.648-19.478-5.347-53.562-5.347-53.562 60.214-14.032 63.697-95.399 37.427-91.056zm-36.09 69.631c4.36-49.013 25.396-57.58 25.396-57.58 6.863 14.514-3.45 49.301-25.396 57.58zM255.178 238.79v29.459l-9.357-1.339s-.556-20.863 9.357-28.12zm-76.19 22.764c-1.24-9.722 5.434-20.453 8.02-21.425 2.586-.973 1.337 21.425 1.337 21.425h-9.357z"/><path class="cls-3" d="M436.999 75.012c99.96 99.96 99.96 262.027 0 361.987-99.96 99.96-262.027 99.96-361.987 0"/></svg>