<svg xmlns="http://www.w3.org/2000/svg" width="228.9" height="230.7" viewBox="0 0 228.937 230.696" preserveAspectRatio="none">
  <g class="hat-svg" fill-rule="evenodd" clip-rule="evenodd">
    <path class="hat-part top-hat" d="M151.2.7c30 12.5 29.8 62.5 39 92.8 11 37.6-19.2 69.2-60.8 67.7-36.8-1.3-63.4-13-82.8-35.5-4.7-5.4-9.6-15.2-8.4-25.4 1-8 3.6-16 4.5-25C45 53.6 45 31 56.4 15.8c5-6.8 13-14.3 26-12.5 10.7 1.5 18 14.5 30.6 11.3 13-3.3 21-17.8 38.2-14z"/>
    <path class="hat-part bottom-hat" d="M39.4 87c-14.8 28 7 51.6 20.8 68.5 4 5 17.4 11.7 24.5 13.4 11.5 2 20.6 5 32.4 6 18 0 37-2 49-8 15-9 26-17 32-34.8 3.6-12.3-2.6-27.8-5.3-40.4-6.2-8.4.3-5.6 5-.5 8.7 9 16 13.7 21.7 26.2 4.7 10 12.3 27.7 10 42.3-2.3 13.6-9.3 30-17.2 36-7.6 10.7-22.6 20-34 27-5.3 3.6-16 3-23.2 3.8-11 1-24.4 1.7-36.2 1.7-7 0-14.6 0-20 1-8.2 1.2-17.3 1-22.7-.6-12.4-3.7-27-1-36.4-9-22-17.4-32.4-46-39-79-.2-1-.2-2.5-.2-3 .5-25.8 20-42 39.4-51z"/>
  </g>
</svg>
