<svg xmlns="http://www.w3.org/2000/svg" width="228" height="230.3" viewBox="0 0 228.007 230.308">
  <g fill-rule="evenodd" clip-rule="evenodd">
    <path d="M141.7 0C146 0 151 0 154 1.7c22.6 11 26.4 46 30.5 74.8 1 7.8 5 8.2 9.8 12 16.3 13 28.4 29 31.7 55.5.6 5.2 2.5 9.4 2 15.7-2.4 26-19.8 43.6-38.7 54.3-5.7 3.2-11 9.6-17.3 11.2-5 1.3-10.2.7-15.4 1-9.8.6-20 2.4-30.2 2.4-10.5 0-20.3-.2-30.3 1-17 2-40-.2-53-6-9-4.4-19-16-24-24.3-8-14-12-26.3-16-45.6-2-11.7-4-20.3 0-32 6-16 18.6-26 32.6-34.2.7-.5 5.2-2.2 6-3 2.5-4 1.5-14 2-17.7 1-6.4.4-12.5 1-18.7 1-10 5.7-24 11.5-32C60 9 69 1 81.8 3 92 4.2 98.7 15.8 111 14c12.3-1.7 15.8-12.6 30.7-14zm-103 88c-9.5 15.8-2.8 34.7 5 48 7.2 11.8 18.6 20.6 30 28.3 16.4 11.2 46.7 11.4 69.7 9 14.7-1.4 29-10.5 38.4-18 4.6-3.8 9.8-9.6 11.8-14.5 5.6-14 2.6-35.2-2.4-47.6-3.7-9 .8 11.2 1 12.3 2.6 19-10.4 34.7-21.7 43.7-16.7 13.3-48.3 12.6-72 7.4-18.8-4-27.7-10-40-19.4-8-6-17-14.6-20-24.8-2.6-8.8.8-15.4 1.2-25 0-.4-.4 0-.4 0-.3 0-.4.4-.5.6z"/>
    <path fill="#FFF" d="M39.3 87.5s.5-.5.4 0c-.4 9.5-3.8 16-1.2 25 3 10 12 18.6 20 24.7 12.3 9.3 21.2 15.3 40 19.4 23.7 5.2 55.3 6 72-7.4 11.3-9 24.2-24.6 21.6-43.7 0-1-4-21.4 0-12.3 5 12.4 8 33.6 2.6 47.6-2 5-7.2 10.7-12 14.4-9.4 7.6-23.6 16.7-38.3 18.2-23 2.3-53.3 2-70-9-11.4-7.8-23-16.6-30-28.4-8-13.3-14.5-32.2-5-48 0-.2 0-.5.6-.5z"/>
  </g>
</svg>
