<svg height="128" viewBox="0 0 128 128" width="128" xmlns="http://www.w3.org/2000/svg">
  <path d="M90.25 107.6H40.92c-3.6 0-6.5-2.92-6.5-6.5V30.86c0-3.58 2.9-6.5 6.5-6.5h28.72c3.15 0 7.37 1.75 9.6 3.98l13.54 13.53c2.22 2.23 3.97 6.45 3.97 9.6v49.63c0 3.58-2.92 6.5-6.5 6.5zM40.92 27.36c-1.93 0-3.5 1.57-3.5 3.5v70.24c0 1.93 1.57 3.5 3.5 3.5h49.33c1.93 0 3.5-1.57 3.5-3.5V51.47c0-2.33-1.45-5.83-3.1-7.48L77.12 30.4c-1.65-1.65-5.15-3.1-7.48-3.1H40.92z" fill="#313335"/>
  <path d="M90.25 47.97h-10.6c-3.6 0-6.5-2.92-6.5-6.5v-10.6c0-3.02 1.6-4.1 3-4.1 1 0 2.05.53 3.1 1.57l13.53 13.53c1.88 1.9 1.65 3.4 1.35 4.13-.3.74-1.2 1.97-3.88 1.97zM76.28 29.83c-.06.16-.14.47-.14 1.03v10.6c0 1.94 1.57 3.5 3.5 3.5h10.6c.57 0 .88-.07 1.04-.13-.07-.16-.23-.44-.63-.84L77.12 30.4c-.4-.4-.68-.56-.84-.63z" fill="#313335"/>
  <path d="M95.25 36.9c-.43 0-.84-.18-1.12-.5L83.76 24.68c-.4-.44-.5-1.07-.25-1.6.3-.55.8-.9 1.4-.9h3.7V12.4c0-.8.7-1.5 1.5-1.5h10.3c.9 0 1.5.7 1.5 1.5v9.8h3.8c.6 0 1.1.34 1.4.88s.2 1.17-.2 1.6L96.4 36.4c-.3.32-.7.5-1.1.5zM88.2 25.2l7.05 7.94 7.04-7.95h-1.9c-.9 0-1.5-.7-1.5-1.5v-9.8h-7.3v9.8c0 .8-.7 1.5-1.5 1.5h-1.9z" fill="#EE3E36"/>
  <path d="M53.8 92.03h-2.55v3.93c0 .57-.13 1-.4 1.28-.26.3-.6.44-1 .44-.42 0-.76-.15-1.02-.43-.26-.3-.4-.7-.4-1.27v-10.7c0-.6.15-1.06.44-1.32.28-.27.73-.4 1.35-.4h3.62c1.06 0 1.88.08 2.46.25.56.2 1.06.5 1.47.8.4.4.73.8.94 1.4.2.6.3 1.1.3 1.8 0 1.4-.4 2.5-1.3 3.2-.8.8-2.1 1.1-3.9 1.1zm-.66-6.36h-1.9v4.24h1.9c.67 0 1.22 0 1.67-.2.5-.1.8-.3 1-.6.3-.3.4-.7.4-1.2 0-.6-.2-1.1-.5-1.5-.4-.4-1.2-.6-2.5-.6zm9.96-2.1h3.67c.95 0 1.77.1 2.45.26s1.3.5 1.85 1c1.45 1.23 2.17 3.1 2.17 5.63 0 .84-.07 1.6-.2 2.28-.16.7-.38 1.3-.7 1.86-.3.56-.68 1.05-1.15 1.5-.4.32-.8.6-1.3.8-.5.2-.9.33-1.5.42-.5.08-1.1.12-1.7.12h-3.6c-.5 0-.9-.08-1.2-.23s-.47-.3-.5-.6c-.1-.3-.17-.6-.17-1.1V85.3c0-.6.2-1.04.4-1.3.3-.28.8-.42 1.4-.42zm1.1 2.2v9.43h2.12c.47 0 .83 0 1.1-.03.27-.03.54-.1.82-.2s.53-.23.74-.42c.94-.8 1.4-2.16 1.4-4.1 0-1.38-.2-2.4-.6-3.08-.42-.7-.93-1.12-1.54-1.3-.6-.2-1.33-.28-2.2-.28H64.2zm19.8-.04h-5.53v3.55h4.63c.43 0 .75.1.96.3.2.18.32.44.32.76s-.1.58-.33.77-.53.3-.95.3h-4.63V96c0 .58-.13 1.02-.4 1.3s-.6.42-1 .42c-.42 0-.76-.16-1.02-.44s-.4-.7-.4-1.3V85.3c0-.4.07-.73.2-1 .1-.24.3-.43.55-.54.25-.12.58-.18.98-.18H84c.45 0 .8.1 1 .3.22.2.33.46.33.78 0 .33-.1.6-.33.8s-.55.3-1 .3z" fill="#313335"/>
  <path d="M46.43 79c-1.47 0-2.65-.75-3.16-2-.84-2.08.38-4.93 3.35-7.84 2.33-2.28 5.6-4.15 9.68-5.57 2.18-4.1 4.18-8.4 5.6-12.1-3.12-4.9-3.7-10.8-2.6-14.2.7-2.2 1.9-3 2.8-3.3 1.26-.5 2.54-.1 3.43.8 1.34 1.4 1.83 4.3 1.5 8.9-.12 1.8-.73 4.2-1.78 7.2l.14.12c.7.9 1.4 1.8 2.2 2.8 1.7 2.15 3.6 4.5 5.5 6.67l1.6-.04c6.8 0 11.3 1.43 12.8 4 .6 1.1.6 2.36 0 3.4-.8 1.45-2.6 2.3-4.8 2.3-.57 0-1.1-.05-1.65-.15-2.7-.5-5.7-2.55-9.4-6.45-.93.06-1.9.13-2.9.23-2.15.2-6.3.74-10.56 2.1-1.8 3.3-5.73 9.9-8.65 11.8-1.1.73-2.25 1.1-3.3 1.1zm7.46-11.2c-2.1 1.03-3.9 2.2-5.2 3.5-2.7 2.6-2.8 4.2-2.7 4.57 0 .1.2.13.4.13.4 0 1-.23 1.6-.6 1.3-.87 3.4-3.7 5.8-7.6zM76 63.7c2.27 2.1 4.17 3.26 5.77 3.56.37.07.73.1 1.07.1 1.18 0 1.95-.4 2.17-.78.1-.07.1-.17 0-.4-.5-.88-2.9-2.3-8.9-2.5zm-12-9.4c-1.04 2.57-2.3 5.35-3.7 8.1 3.44-.86 6.55-1.26 8.35-1.43l.7-.07c-1.43-1.7-2.8-3.42-4.07-5-.43-.56-.86-1.1-1.27-1.6zm-.8-17.4l-.14.02c-.33.12-.68.63-.92 1.36-.72 2.2-.43 5.93 1.06 9.35.48-1.62.77-2.98.84-4.02.37-5-.45-6.3-.7-6.6-.08-.1-.1-.1-.13-.1z" fill="#EE3E36"/>
  <path fill="none" d="M.5.5h128v128H.5z"/>
</svg>
