<svg height="24" viewBox="0 0 24 24" width="24" xmlns="http://www.w3.org/2000/svg"><title/><g fill="none" fill-rule="evenodd"><path d="M12 23c6.075 0 11-4.925 11-11S18.075 1 12 1 1 5.925 1 12s4.925 11 11 11zm4.0525-15.24c-.4433-.504-1.075-.825-1.774-.8366-1.3422-.0223-2.4304 1.1118-2.4304 2.533 0 .2018.0216.3985.063.5873-2.02-.131-3.8107-1.1828-5.0093-2.7683-.2093.38-.329.824-.329 1.2996 0 .9005.429 1.6997 1.081 2.1715-.3983-.0176-.773-.1382-1.1007-.336-.0003.0108-.0003.0216-.0003.0326 0 1.2576.8378 2.3126 1.9496 2.5583-.204.0578-.4186.088-.6403.0866-.1566-.001-.309-.0185-.4572-.0497.3092 1.0313 1.2067 1.7838 2.2703 1.8087-.8317.6905-1.8796 1.1017-3.0183 1.0994-.1962-.0004-.3896-.013-.5798-.0375 1.0755.738 2.353 1.1676 3.7255 1.168 4.4703.001 6.915-3.8892 6.915-7.2635 0-.1107-.0025-.2208-.007-.3304.4747-.3538.8867-.7974 1.2126-1.304-.4357.1965-.9042.327-1.3958.3817.5018-.3088.8872-.803 1.0686-1.3957-.4696.2848-.9897.489-1.5433.595z" fill="#000"/></g></svg>